<svg width="111" height="101" viewBox="0 0 111 101" fill="none" xmlns="http://www.w3.org/2000/svg"><path d="M82.0667 100.406H29.5334C14.8667 100.406 2.60006 86.9393 1.40006 69.406C0.533389 57.2063 0.666722 44.9396 1.73339 32.5396C3.13339 16.4063 13.8001 3.80624 27.2001 2.27291C46.6667 0.072909 65.8667 -0.127091 84.7333 1.93957C98.4 3.47291 109.2 16.6063 110.267 33.0729C111.067 45.2729 111 57.2063 110.267 68.9393C109.133 86.6727 96.8667 100.406 82.0667 100.406Z" fill="#5251FC"/><mask id="mask0_3_17549" style="mask-type:alpha" maskUnits="userSpaceOnUse" x="0" y="0" width="111" height="101"><path d="M82.0667 100.406H29.5334C14.8667 100.406 2.60006 86.9393 1.40006 69.406C0.533389 57.2063 0.666722 44.9396 1.73339 32.5396C3.13339 16.4063 13.8001 3.80624 27.2001 2.27291C46.6667 0.072909 65.8667 -0.127091 84.7333 1.93957C98.4 3.47291 109.2 16.6063 110.267 33.0729C111.067 45.2729 111 57.2063 110.267 68.9393C109.133 86.6727 96.8667 100.406 82.0667 100.406Z" fill="#5251FC"/></mask><g mask="url(#mask0_3_17549)"><g clip-path="url(#clip0_3_17549)"><path d="M64.9167 74.6538H46.9846C35.8795 74.6538 30.3269 74.6539 26.959 71.1949C23.5 67.7359 23.5 62.1833 23.5 51.1692V49.0756C23.5 37.9705 23.5 32.4179 26.8679 28.959C30.3269 25.5 35.9705 25.5 46.9846 25.5H64.9167C76.0218 25.5 81.6654 25.5 85.1244 28.959C88.5833 32.4179 88.5833 37.9705 88.5833 48.9846V51.0782C88.5833 62.1833 88.5833 67.7359 85.1244 71.1949C81.5744 74.6539 76.0218 74.6538 65.0987 74.6538H64.9167Z" fill="#5FEDFF"/><mask id="mask1_3_17549" style="mask-type:alpha" maskUnits="userSpaceOnUse" x="23" y="25" width="66" height="50"><path d="M64.9167 74.6538H46.9846C35.8795 74.6538 30.3269 74.6539 26.959 71.1949C23.5 67.7359 23.5 62.1833 23.5 51.1692V49.0756C23.5 37.9705 23.5 32.4179 26.8679 28.959C30.3269 25.5 35.9705 25.5 46.9846 25.5H64.9167C76.0218 25.5 81.6654 25.5 85.1244 28.959C88.5833 32.4179 88.5833 37.9705 88.5833 48.9846V51.0782C88.5833 62.1833 88.5833 67.7359 85.1244 71.1949C81.5744 74.6539 76.0218 74.6538 65.0987 74.6538H64.9167Z" fill="#5FEDFF"/></mask><g mask="url(#mask1_3_17549)"><path d="M33.9397 48.5896C34.3891 60.4958 30.9436 72.5356 28.8838 76.9241C67.9824 99.3627 70.0797 87.9908 66.241 79.5C64.4433 74.0048 63.9939 66.5253 63.9939 63.4724L33.9397 48.5896Z" fill="#FFA38A"/><path d="M27.7603 40.1223C16.0757 41.0382 14.4653 32.4901 15.1207 28.1016C15.3771 26.3844 18.2104 23.6941 26.075 23.2361C35.9059 22.6637 44.6132 -2.80869 46.0176 -2.80869C76.9145 -8.53283 84.7791 22.6637 83.9365 40.1223C83.0938 57.5809 71.8586 65.8809 53.8822 64.1637C39.5011 62.7899 30.4755 47.5637 27.7603 40.1223Z" fill="#FFA38A"/><path fill-rule="evenodd" clip-rule="evenodd" d="M59.6672 21.6467C60.2876 21.3294 61.065 21.5438 61.4034 22.1256C61.8076 22.8204 62.5248 23.935 63.3401 24.983C64.1897 26.075 65.0197 26.9274 65.6307 27.2711C66.0895 27.5292 66.4987 27.8752 66.7516 28.3391C67.0152 28.8225 67.0527 29.3313 66.9404 29.7971C66.7369 30.6415 66.0568 31.312 65.4638 31.768C64.8252 32.259 64.054 32.6781 63.3257 32.9769C62.6303 33.2622 61.8238 33.5 61.1331 33.5C60.4264 33.5 59.8534 32.9628 59.8534 32.3C59.8534 31.6373 60.4264 31.1 61.1331 31.1C61.2956 31.1 61.7155 31.0179 62.2998 30.7782C62.8513 30.5519 63.4131 30.2411 63.8409 29.9121C64.0537 29.7485 64.2114 29.5972 64.3163 29.4688C64.3457 29.4329 64.369 29.401 64.3874 29.3734C64.367 29.3601 64.3427 29.3453 64.3139 29.3291C63.2186 28.7129 62.129 27.4985 61.2723 26.3973C60.3813 25.252 59.6055 24.0466 59.1565 23.2748C58.8181 22.693 59.0467 21.9641 59.6672 21.6467Z" fill="#F07877"/><path d="M33.396 60.8239C33.943 57.4645 34.1084 55.4559 34.2078 51.7002C39.1866 59.4162 48.0078 63.0831 51.796 63.952C43.1372 64.1605 35.6509 62.1273 33.396 60.8239Z" fill="#EE7876"/><path d="M60.5336 38.1523C51.3001 37.2599 50.5306 38.9455 50.4344 39.9371C48.7031 43.8041 60.4856 52.7162 67.1702 46.4813C73.2298 40.8295 69.7672 39.0447 60.5336 38.1523Z" fill="#121E48"/><path d="M69.8521 40.2807C69.7418 41.8351 65.251 42.8077 59.8216 42.4532C54.3922 42.0986 50.0802 40.5511 50.1905 38.9967C50.3007 37.4423 54.7915 36.4697 60.2209 36.8243C65.6503 37.1788 69.9623 38.7263 69.8521 40.2807Z" fill="white"/><path d="M65.1884 57.8333C60.5773 57.8333 54.8742 49.3495 54.8742 46.3391C54.5916 43.5345 59.575 43.5803 62.7106 44.9274C63.1424 45.1129 63.6343 45.1778 64.1066 45.11C73.2538 43.7957 70.8059 57.8333 65.1884 57.8333Z" fill="#FF0080"/></g><path d="M124.724 53.1718C125.328 53.1718 125.907 52.932 126.333 52.5052C126.76 52.0785 127 51.4997 127 50.8961V49.2577C127.022 48.8051 126.902 48.357 126.658 47.9753C126.414 47.5936 126.058 47.2973 125.638 47.1273C125.218 46.9573 124.755 46.9221 124.314 47.0265C123.873 47.131 123.476 47.3699 123.177 47.7102C122.722 48.0743 122.54 48.6205 122.54 49.2577V50.8961C122.527 51.1906 122.575 51.4845 122.679 51.7601C122.783 52.0358 122.942 52.2875 123.147 52.5001C123.351 52.7127 123.596 52.8818 123.867 52.9972C124.138 53.1126 124.43 53.172 124.724 53.1718ZM105.882 64.1859C106.47 64.1623 107.025 63.9122 107.433 63.488C107.84 63.0638 108.067 62.4983 108.067 61.9102V38.2436C108.067 37.6521 107.832 37.0848 107.413 36.6666C106.995 36.2484 106.428 36.0134 105.837 36.0134C105.245 36.0134 104.678 36.2484 104.26 36.6666C103.841 37.0848 103.606 37.6521 103.606 38.2436V61.9102C103.594 62.2125 103.644 62.5142 103.753 62.7961C103.863 63.078 104.03 63.334 104.244 63.548C104.458 63.7619 104.714 63.9291 104.996 64.0389C105.278 64.1487 105.58 64.1987 105.882 64.1859ZM115.349 57.8141C115.921 57.7916 116.464 57.5542 116.869 57.1493C117.274 56.7444 117.511 56.2017 117.533 55.6295V44.6154C117.533 44.0118 117.294 43.433 116.867 43.0062C116.44 42.5795 115.861 42.3397 115.258 42.3397C114.654 42.3397 114.075 42.5795 113.649 43.0062C113.222 43.433 112.982 44.0118 112.982 44.6154V55.5384C112.982 55.8451 113.044 56.1486 113.164 56.4308C113.284 56.713 113.459 56.9681 113.68 57.1806C113.902 57.3932 114.163 57.5588 114.45 57.6677C114.737 57.7765 115.042 57.8263 115.349 57.8141ZM96.4154 60.6359C97.5987 60.6359 98.6 59.2705 98.6 57.632V42.5218C98.6 40.8833 97.6898 39.5179 96.4154 39.5179C95.1411 39.5179 94.1398 40.8833 94.1398 42.5218V57.632C94.1398 59.2705 95.1411 60.6359 96.4154 60.6359Z" fill="#00DC7F"/><path d="M-14.3335 52.5049C-13.9067 52.9317 -13.3279 53.1714 -12.7244 53.1714C-12.1208 53.1714 -11.542 52.9317 -11.1152 52.5049C-10.6885 52.0781 -10.4487 51.4993 -10.4487 50.8958V49.2573C-10.4487 48.6538 -10.6885 48.075 -11.1152 47.6482C-11.542 47.2214 -12.1208 46.9817 -12.7244 46.9817C-13.3279 46.9817 -13.9067 47.2214 -14.3335 47.6482C-14.7602 48.075 -15 48.6538 -15 49.2573V50.8958C-15 51.4993 -14.7602 52.0781 -14.3335 52.5049Z" fill="#00DC7F"/><path d="M4.56736 63.4876C4.97463 63.9119 5.53033 64.162 6.11795 64.1855C6.72149 64.1855 7.30031 63.9458 7.72707 63.519C8.15384 63.0922 8.39359 62.5134 8.39359 61.9099V38.2432C8.28913 37.7288 8.01004 37.2663 7.60361 36.9341C7.19717 36.6019 6.68839 36.4204 6.16346 36.4204C5.63854 36.4204 5.12976 36.6019 4.72332 36.9341C4.31688 37.2663 4.03779 37.7288 3.93333 38.2432V61.9099C3.93286 62.498 4.16008 63.0634 4.56736 63.4876Z" fill="#00DC7F"/><path d="M-4.86857 57.149C-4.46364 57.5539 -3.92093 57.7913 -3.34872 57.8137C-2.74518 57.8137 -2.16636 57.574 -1.7396 57.1472C-1.31283 56.7204 -1.07308 56.1416 -1.07308 55.5381V44.615C-1.00596 44.2845 -1.01315 43.9432 -1.09412 43.6158C-1.17509 43.2884 -1.32781 42.9831 -1.54124 42.722C-1.75467 42.4609 -2.02347 42.2505 -2.32819 42.106C-2.63292 41.9615 -2.96595 41.8865 -3.3032 41.8865C-3.64045 41.8865 -3.97349 41.9615 -4.27822 42.106C-4.58294 42.2505 -4.85174 42.4609 -5.06517 42.722C-5.2786 42.9831 -5.43132 43.2884 -5.51229 43.6158C-5.59326 43.9432 -5.60044 44.2845 -5.53333 44.615V55.6291C-5.51087 56.2013 -5.27349 56.744 -4.86857 57.149Z" fill="#00DC7F"/><path d="M13.4 57.6317C13.4 59.2701 14.4013 60.6355 15.5846 60.6355C16.859 60.6355 17.8603 59.2701 17.8603 57.6317V42.5214C17.8603 40.8829 16.859 39.5176 15.5846 39.5176C14.3103 39.5176 13.4 40.8829 13.4 42.5214V57.6317Z" fill="#00DC7F"/></g></g><defs><clipPath id="clip0_3_17549"><rect width="142" height="49.1538" fill="white" transform="translate(-15 25.5)"/></clipPath></defs></svg>
