<svg width="29" height="28" viewBox="0 0 29 28" fill="none" xmlns="http://www.w3.org/2000/svg"><path d="M12.5 3C12.5 3.55228 12.0523 4 11.5 4C7.63401 4 4.5 7.13401 4.5 11C4.5 11.5523 4.05228 12 3.5 12C2.94771 12 2.5 11.5523 2.5 11C2.5 6.02944 6.52944 2 11.5 2C12.0523 2 12.5 2.44771 12.5 3Z" fill="currentcolor"/><path d="M12.5 25C12.5 24.4477 12.0523 24 11.5 24C7.63401 24 4.5 20.866 4.5 17C4.5 16.4477 4.05228 16 3.5 16C2.94772 16 2.5 16.4477 2.5 17C2.5 21.9706 6.52944 26 11.5 26C12.0523 26 12.5 25.5523 12.5 25Z" fill="currentcolor"/><path d="M16.5 3C16.5 3.55228 16.9477 4 17.5 4C21.366 4 24.5 7.13401 24.5 11C24.5 11.5523 24.9477 12 25.5 12C26.0523 12 26.5 11.5523 26.5 11C26.5 6.02944 22.4706 2 17.5 2C16.9477 2 16.5 2.44771 16.5 3Z" fill="currentcolor"/><path d="M16.5 25C16.5 24.4477 16.9477 24 17.5 24C21.366 24 24.5 20.866 24.5 17C24.5 16.4477 24.9477 16 25.5 16C26.0523 16 26.5 16.4477 26.5 17C26.5 21.9706 22.4706 26 17.5 26C16.9477 26 16.5 25.5523 16.5 25Z" fill="currentcolor"/><path d="M19.4961 9.99951C19.2299 9.99951 18.9746 10.105 18.7861 10.2928V10.2918L12.4961 16.5878L9.70305 13.7948C9.61014 13.702 9.49985 13.6283 9.37849 13.5781C9.25712 13.5279 9.12705 13.5021 8.9957 13.5021C8.73043 13.5022 8.47606 13.6077 8.28855 13.7953C8.10104 13.983 7.99576 14.2374 7.99585 14.5027C7.9959 14.634 8.02181 14.7641 8.07212 14.8854C8.12243 15.0067 8.19614 15.117 8.28905 15.2098L11.7891 18.7098C11.9766 18.8973 12.2309 19.0026 12.4961 19.0026C12.7612 19.0026 13.0155 18.8973 13.2031 18.7098L20.2061 11.7128C20.5961 11.3218 20.5961 10.6828 20.2061 10.2928C20.0175 10.105 19.7622 9.99951 19.4961 9.99951Z" fill="currentcolor"/></svg>
